<?xml version="1.0" encoding="UTF-8" standalone="no"?>
<!-- Created with Inkscape (http://www.inkscape.org/) -->

<svg
   width="139.01883mm"
   height="144.40466mm"
   viewBox="0 0 139.01883 144.40466"
   version="1.1"
   id="svg5"
   inkscape:version="1.1.1 (1:1.1+202109281949+c3084ef5ed)"
   sodipodi:docname="video-1.svg"
   xmlns:inkscape="http://www.inkscape.org/namespaces/inkscape"
   xmlns:sodipodi="http://sodipodi.sourceforge.net/DTD/sodipodi-0.dtd"
   xmlns:xlink="http://www.w3.org/1999/xlink"
   xmlns="http://www.w3.org/2000/svg"
   xmlns:svg="http://www.w3.org/2000/svg">
  <sodipodi:namedview
     id="namedview7"
     pagecolor="#ffffff"
     bordercolor="#cccccc"
     borderopacity="1"
     inkscape:pageshadow="0"
     inkscape:pageopacity="1"
     inkscape:pagecheckerboard="0"
     inkscape:document-units="mm"
     showgrid="false"
     inkscape:zoom="0.29152872"
     inkscape:cx="488.80261"
     inkscape:cy="313.86273"
     inkscape:window-width="1366"
     inkscape:window-height="704"
     inkscape:window-x="0"
     inkscape:window-y="27"
     inkscape:window-maximized="1"
     inkscape:current-layer="g25251"
     inkscape:lockguides="false"
     fit-margin-top="0"
     fit-margin-left="0"
     fit-margin-right="0"
     fit-margin-bottom="0"
     showguides="false" />
  <defs
     id="defs2">
    <linearGradient
       inkscape:collect="always"
       id="linearGradient28429">
      <stop
         style="stop-color:#53676c;stop-opacity:1;"
         offset="0"
         id="stop28425" />
      <stop
         style="stop-color:#53676c;stop-opacity:0;"
         offset="1"
         id="stop28427" />
    </linearGradient>
    <linearGradient
       inkscape:collect="always"
       id="linearGradient27118">
      <stop
         style="stop-color:#000000;stop-opacity:1;"
         offset="0"
         id="stop27114" />
      <stop
         style="stop-color:#000000;stop-opacity:0;"
         offset="1"
         id="stop27116" />
    </linearGradient>
    <radialGradient
       inkscape:collect="always"
       xlink:href="#linearGradient27118"
       id="radialGradient27124"
       cx="75.668114"
       cy="110.93562"
       fx="75.668114"
       fy="110.93562"
       r="67.569695"
       gradientTransform="matrix(1.0063191,0,0,0.71237053,-0.0530492,-189.96288)"
       gradientUnits="userSpaceOnUse" />
    <linearGradient
       inkscape:collect="always"
       xlink:href="#linearGradient28429"
       id="linearGradient28431"
       x1="52.27198"
       y1="-63.522354"
       x2="58.667782"
       y2="-226.07846"
       gradientUnits="userSpaceOnUse" />
    <linearGradient
       inkscape:collect="always"
       xlink:href="#linearGradient28429"
       id="linearGradient29906"
       gradientUnits="userSpaceOnUse"
       x1="52.27198"
       y1="-63.522354"
       x2="58.667782"
       y2="-226.07846" />
    <radialGradient
       inkscape:collect="always"
       xlink:href="#linearGradient27118"
       id="radialGradient29908"
       gradientUnits="userSpaceOnUse"
       gradientTransform="matrix(1.0063191,0,0,0.71237053,-0.0530492,-189.96288)"
       cx="75.668114"
       cy="110.93562"
       fx="75.668114"
       fy="110.93562"
       r="67.569695" />
    <linearGradient
       inkscape:collect="always"
       xlink:href="#linearGradient28429"
       id="linearGradient29910"
       gradientUnits="userSpaceOnUse"
       x1="52.27198"
       y1="-63.522354"
       x2="58.667782"
       y2="-226.07846" />
    <radialGradient
       inkscape:collect="always"
       xlink:href="#linearGradient27118"
       id="radialGradient29912"
       gradientUnits="userSpaceOnUse"
       gradientTransform="matrix(1.0063191,0,0,0.71237053,-0.0530492,-189.96288)"
       cx="75.668114"
       cy="110.93562"
       fx="75.668114"
       fy="110.93562"
       r="67.569695" />
    <radialGradient
       inkscape:collect="always"
       xlink:href="#linearGradient27118"
       id="radialGradient3808"
       gradientUnits="userSpaceOnUse"
       gradientTransform="matrix(-3.6679844,1.0058944,-0.71206991,-2.5965561,920.01046,690.57188)"
       cx="75.668114"
       cy="110.93562"
       fx="75.668114"
       fy="110.93562"
       r="67.569695" />
    <linearGradient
       inkscape:collect="always"
       xlink:href="#linearGradient28429"
       id="linearGradient8359"
       gradientUnits="userSpaceOnUse"
       x1="52.27198"
       y1="-63.522354"
       x2="58.667782"
       y2="-226.07846" />
    <radialGradient
       inkscape:collect="always"
       xlink:href="#linearGradient27118"
       id="radialGradient8361"
       gradientUnits="userSpaceOnUse"
       gradientTransform="matrix(1.0063191,0,0,0.71237053,-0.0530492,-189.96288)"
       cx="75.668114"
       cy="110.93562"
       fx="75.668114"
       fy="110.93562"
       r="67.569695" />
    <linearGradient
       inkscape:collect="always"
       xlink:href="#linearGradient28429"
       id="linearGradient8363"
       gradientUnits="userSpaceOnUse"
       x1="52.27198"
       y1="-63.522354"
       x2="58.667782"
       y2="-226.07846" />
    <radialGradient
       inkscape:collect="always"
       xlink:href="#linearGradient27118"
       id="radialGradient8365"
       gradientUnits="userSpaceOnUse"
       gradientTransform="matrix(1.0063191,0,0,0.71237053,-0.0530492,-189.96288)"
       cx="75.668114"
       cy="110.93562"
       fx="75.668114"
       fy="110.93562"
       r="67.569695" />
    <linearGradient
       inkscape:collect="always"
       xlink:href="#linearGradient28429"
       id="linearGradient8367"
       gradientUnits="userSpaceOnUse"
       x1="52.27198"
       y1="-63.522354"
       x2="58.667782"
       y2="-226.07846" />
    <radialGradient
       inkscape:collect="always"
       xlink:href="#linearGradient27118"
       id="radialGradient8369"
       gradientUnits="userSpaceOnUse"
       gradientTransform="matrix(1.0063191,0,0,0.71237053,-0.0530492,-189.96288)"
       cx="75.668114"
       cy="110.93562"
       fx="75.668114"
       fy="110.93562"
       r="67.569695" />
    <radialGradient
       inkscape:collect="always"
       xlink:href="#linearGradient27118"
       id="radialGradient8371"
       gradientUnits="userSpaceOnUse"
       gradientTransform="matrix(-3.6679844,1.0058944,-0.71206991,-2.5965561,920.01046,690.57188)"
       cx="75.668114"
       cy="110.93562"
       fx="75.668114"
       fy="110.93562"
       r="67.569695" />
  </defs>
  <g
     inkscape:label="Capa 1"
     inkscape:groupmode="layer"
     id="layer1"
     transform="translate(-34.022328,-54.084773)">
    <g
       id="g8357"
       transform="rotate(14.044175,102.67415,130.29412)">
      <g
         id="g28551"
         transform="matrix(-0.96439345,0.26447168,0.26447168,0.96439345,151.28585,17.435671)">
        <path
           id="rect26894"
           style="display:inline;opacity:0.953717;fill:url(#linearGradient8359);stroke:url(#radialGradient8361);stroke-width:1.18136;stroke-opacity:0.91488;paint-order:fill markers stroke"
           transform="scale(1,-1)"
           d="m 8.6890965,-158.48148 c 1.6580815,-9.11672 131.1778035,-4.59157 134.8082435,0 3.63044,4.59157 0,95.091709 0,95.091709 H 8.6890965 c 0,0 -1.6580812,-85.974989 0,-95.091709 z"
           sodipodi:nodetypes="zzccz" />
        <g
           id="g36680"
           transform="translate(2.1166667,3.1750001)"
           style="display:inline;opacity:0.872571;fill:#ffffff">
          <path
             style="display:inline;fill:#ffffff;fill-opacity:0.909804;stroke:none;stroke-width:0.245835px;stroke-linecap:butt;stroke-linejoin:miter;stroke-opacity:1"
             d="m 67.169531,155.81481 c 31.2716,-0.19854 52.761899,-27.99187 42.396329,-52.73626 -6.85694,-14.201236 -23.685891,-23.599485 -23.685891,-23.599485 -1.552044,5.305522 -7.111328,5.854526 -8.933106,0.330726 -1.758009,-6.070554 1.41207,-7.798221 3.108978,-9.968498 0,0 -10.313502,4.247895 -15.290873,8.334385 -4.977371,4.086491 -10.675997,14.186007 -10.675997,14.186007 0,0 -6.174045,-6.163088 -3.44843,-14.351339 0,0 -12.348491,4.613675 -17.868044,19.567871 -8.229184,25.552763 -4.3118,54.954153 34.397024,58.236593 z"
             id="path11196"
             sodipodi:nodetypes="ccccczccccc" />
          <path
             style="fill:#d40000;stroke:none;stroke-width:0.286975px;stroke-linecap:butt;stroke-linejoin:miter;stroke-opacity:1"
             d="m 82.262248,104.4796 c -4.299982,-3.41401 -31.900112,11.43412 -31.898106,15.86378 7.686222,12.40636 26.543234,17.55778 30.811265,14.56246 4.550414,-3.09754 6.218966,-26.4911 1.086841,-30.42624 z"
             id="path22635"
             sodipodi:nodetypes="cccc" />
          <path
             id="path29237"
             style="display:inline;opacity:0.161804;fill:#54666c;fill-opacity:0.858824;stroke:none;stroke-width:0.92914px;stroke-linecap:butt;stroke-linejoin:miter;stroke-opacity:1"
             d="m 366.60352,379.4082 c 0,0 -23.63056,12.19225 -42.87943,31.22958 19.48551,-8.76192 41.75849,-17.1047 59.36966,-15.25887 -6.84338,-0.42034 -13.55865,-5.94935 -16.49023,-15.97071 z"
             transform="matrix(-0.26458333,0,0,0.26458333,182.87736,-20.905834)"
             sodipodi:nodetypes="cccc" />
          <path
             id="path6140"
             style="display:inline;opacity:0.776206;fill:#cccccc;fill-opacity:0.909804;stroke:none;stroke-width:0.245835px;stroke-linecap:butt;stroke-linejoin:miter;stroke-opacity:1"
             d="M 80.055869,69.841095 C 66.512695,75.712 61.777222,83.783554 60.219801,98.760075 c 0,0 -4.106631,-3.00634 -6.130823,-6.39839 0,0 5.698982,-10.099725 10.676353,-14.186215 4.97737,-4.086489 15.290538,-8.334375 15.290538,-8.334375 z"
             sodipodi:nodetypes="ccssc" />
        </g>
      </g>
      <g
         id="g25265"
         transform="matrix(-0.96439345,0.26447168,0.26447168,0.96439345,151.28585,17.435671)">
        <g
           id="g25251"
           transform="matrix(0.87099387,0,0,1,1.7848445,0.74212092)">
          <g
             id="g25249"
             transform="matrix(1.0000186,0,0,-0.41886041,-0.00252982,72.621151)">
            <path
               id="path25241"
               style="opacity:0.953717;fill:#dedbe3;stroke-width:1.26925;paint-order:fill markers stroke"
               d="M 38.786904,23.615583 C 81.155218,23.272224 162.74961,23.729178 162.74961,23.729178 L 162.93078,63.408376 7.4001687,63.464036 7.9198626,23.830572 38.786904,23.615579 Z"
               sodipodi:nodetypes="ccccccc" />
            <path
               style="fill:#1f1c24;fill-opacity:1;stroke:#000000;stroke-width:0.264181px;stroke-linecap:butt;stroke-linejoin:miter;stroke-opacity:0.992957"
               d="M 7.9198626,23.830572 49.644,63.526478 7.3,63.375569 7.390772,44.977118 Z"
               id="path25243"
               sodipodi:nodetypes="ccccc" />
            <path
               style="fill:#1f1c24;fill-opacity:1;stroke:#000000;stroke-width:0.265661px;stroke-linecap:butt;stroke-linejoin:miter;stroke-opacity:0.992957"
               d="M 30.410857,23.839997 78.405624,63.06292 H 105.85758 L 57.966426,23.4945 40.396871,23.373705 c -5.396785,-0.03711 -9.986014,0.466292 -9.986014,0.466292 z"
               id="path25245"
               sodipodi:nodetypes="ccccsc" />
            <path
               style="fill:#1f1c24;fill-opacity:1;stroke:#000000;stroke-width:0.265661px;stroke-linecap:butt;stroke-linejoin:miter;stroke-opacity:0.992957"
               d="m 86.544662,23.502919 47.994958,39.801885 h 27.45209 L 113.92863,23.573747 Z"
               id="path25247"
               sodipodi:nodetypes="ccccc" />
          </g>
        </g>
        <path
           id="path25253"
           style="display:inline;opacity:0.953717;fill:url(#linearGradient8363);stroke:url(#radialGradient8365);stroke-width:1.18136;stroke-opacity:0.91488;paint-order:fill markers stroke"
           transform="scale(1,-1)"
           d="m 8.6890965,-158.48148 c 1.6580815,-9.11672 131.1778035,-4.59157 134.8082435,0 3.63044,4.59157 0,95.091709 0,95.091709 H 8.6890965 c 0,0 -1.6580812,-85.974989 0,-95.091709 z"
           sodipodi:nodetypes="zzccz" />
        <g
           id="g25263"
           transform="translate(2.1166667,3.1750001)"
           style="display:inline;opacity:0.872571;fill:#ffffff">
          <path
             style="display:inline;fill:#ffffff;fill-opacity:0.909804;stroke:none;stroke-width:0.245835px;stroke-linecap:butt;stroke-linejoin:miter;stroke-opacity:1"
             d="m 67.169531,155.81481 c 31.2716,-0.19854 52.761899,-27.99187 42.396329,-52.73626 -6.85694,-14.201236 -23.685891,-23.599485 -23.685891,-23.599485 -1.552044,5.305522 -7.111328,5.854526 -8.933106,0.330726 -1.758009,-6.070554 1.41207,-7.798221 3.108978,-9.968498 0,0 -10.313502,4.247895 -15.290873,8.334385 -4.977371,4.086491 -10.675997,14.186007 -10.675997,14.186007 0,0 -6.174045,-6.163088 -3.44843,-14.351339 0,0 -12.348491,4.613675 -17.868044,19.567871 -8.229184,25.552763 -4.3118,54.954153 34.397024,58.236593 z"
             id="path25255"
             sodipodi:nodetypes="ccccczccccc" />
          <path
             style="fill:#d40000;stroke:none;stroke-width:0.286975px;stroke-linecap:butt;stroke-linejoin:miter;stroke-opacity:1"
             d="m 82.262248,104.4796 c -4.299982,-3.41401 -31.900112,11.43412 -31.898106,15.86378 7.686222,12.40636 26.543234,17.55778 30.811265,14.56246 4.550414,-3.09754 6.218966,-26.4911 1.086841,-30.42624 z"
             id="path25257"
             sodipodi:nodetypes="cccc" />
          <path
             id="path25259"
             style="display:inline;opacity:0.161804;fill:#54666c;fill-opacity:0.858824;stroke:none;stroke-width:0.92914px;stroke-linecap:butt;stroke-linejoin:miter;stroke-opacity:1"
             d="m 366.60352,379.4082 c 0,0 -23.63056,12.19225 -42.87943,31.22958 19.48551,-8.76192 41.75849,-17.1047 59.36966,-15.25887 -6.84338,-0.42034 -13.55865,-5.94935 -16.49023,-15.97071 z"
             transform="matrix(-0.26458333,0,0,0.26458333,182.87736,-20.905834)"
             sodipodi:nodetypes="cccc" />
          <path
             id="path25261"
             style="display:inline;opacity:0.776206;fill:#cccccc;fill-opacity:0.909804;stroke:none;stroke-width:0.245835px;stroke-linecap:butt;stroke-linejoin:miter;stroke-opacity:1"
             d="M 80.055869,69.841095 C 66.512695,75.712 61.777222,83.783554 60.219801,98.760075 c 0,0 -4.106631,-3.00634 -6.130823,-6.39839 0,0 5.698982,-10.099725 10.676353,-14.186215 4.97737,-4.086489 15.290538,-8.334375 15.290538,-8.334375 z"
             sodipodi:nodetypes="ccssc" />
        </g>
      </g>
      <g
         id="g25307"
         transform="matrix(-0.96439345,0.26447168,0.26447168,0.96439345,151.28585,17.435671)">
        <path
           id="path25295"
           style="display:inline;opacity:0.953717;fill:url(#linearGradient8367);stroke:url(#radialGradient8369);stroke-width:1.18136;stroke-opacity:0.91488;paint-order:fill markers stroke"
           transform="scale(1,-1)"
           d="m 8.6890965,-158.48148 c 1.6580815,-9.11672 131.1778035,-4.59157 134.8082435,0 3.63044,4.59157 0,95.091709 0,95.091709 H 8.6890965 c 0,0 -1.6580812,-85.974989 0,-95.091709 z"
           sodipodi:nodetypes="zzccz" />
        <g
           id="g25305"
           transform="translate(2.1166667,3.1750001)"
           style="display:inline;opacity:0.872571;fill:#ffffff">
          <path
             style="display:inline;fill:#ffffff;fill-opacity:0.909804;stroke:none;stroke-width:0.245835px;stroke-linecap:butt;stroke-linejoin:miter;stroke-opacity:1"
             d="m 67.169531,155.81481 c 31.2716,-0.19854 52.761899,-27.99187 42.396329,-52.73626 -6.85694,-14.201236 -23.685891,-23.599485 -23.685891,-23.599485 -1.552044,5.305522 -7.111328,5.854526 -8.933106,0.330726 -1.758009,-6.070554 1.41207,-7.798221 3.108978,-9.968498 0,0 -10.313502,4.247895 -15.290873,8.334385 -4.977371,4.086491 -10.675997,14.186007 -10.675997,14.186007 0,0 -6.174045,-6.163088 -3.44843,-14.351339 0,0 -12.348491,4.613675 -17.868044,19.567871 -8.229184,25.552763 -4.3118,54.954153 34.397024,58.236593 z"
             id="path25297"
             sodipodi:nodetypes="ccccczccccc" />
          <path
             style="fill:#d40000;stroke:none;stroke-width:0.286975px;stroke-linecap:butt;stroke-linejoin:miter;stroke-opacity:1"
             d="m 82.262248,104.4796 c -4.299982,-3.41401 -31.900112,11.43412 -31.898106,15.86378 7.686222,12.40636 26.543234,17.55778 30.811265,14.56246 4.550414,-3.09754 6.218966,-26.4911 1.086841,-30.42624 z"
             id="path25299"
             sodipodi:nodetypes="cccc" />
          <path
             id="path25301"
             style="display:inline;opacity:0.161804;fill:#54666c;fill-opacity:0.858824;stroke:none;stroke-width:0.92914px;stroke-linecap:butt;stroke-linejoin:miter;stroke-opacity:1"
             d="m 366.60352,379.4082 c 0,0 -23.63056,12.19225 -42.87943,31.22958 19.48551,-8.76192 41.75849,-17.1047 59.36966,-15.25887 -6.84338,-0.42034 -13.55865,-5.94935 -16.49023,-15.97071 z"
             transform="matrix(-0.26458333,0,0,0.26458333,182.87736,-20.905834)"
             sodipodi:nodetypes="cccc" />
          <path
             id="path25303"
             style="display:inline;opacity:0.776206;fill:#cccccc;fill-opacity:0.909804;stroke:none;stroke-width:0.245835px;stroke-linecap:butt;stroke-linejoin:miter;stroke-opacity:1"
             d="M 80.055869,69.841095 C 66.512695,75.712 61.777222,83.783554 60.219801,98.760075 c 0,0 -4.106631,-3.00634 -6.130823,-6.39839 0,0 5.698982,-10.099725 10.676353,-14.186215 4.97737,-4.086489 15.290538,-8.334375 15.290538,-8.334375 z"
             sodipodi:nodetypes="ccssc" />
          <path
             id="path6182"
             style="fill:#aa0000;stroke:none;stroke-width:1.08463px;stroke-linecap:butt;stroke-linejoin:miter;stroke-opacity:1"
             d="m 591.06641,579.41602 c 25.99691,-12.21657 60.16458,-41.65648 71.04492,-78.51954 -1.65697,-6.05287 -18.91138,-13.55869 -40.48418,-19.69986 22.55574,24.81687 14.54826,61.15141 -30.56074,98.2194 z"
             transform="matrix(-0.25516243,0.0699748,0.0699748,0.25516243,184.25977,-53.79767)"
             sodipodi:nodetypes="cccc" />
        </g>
        <path
           id="path3700"
           style="display:inline;opacity:0.394176;fill:#536753;fill-opacity:1;stroke:url(#radialGradient8371);stroke-width:4.46498;stroke-opacity:0.91488;paint-order:fill markers stroke"
           d="m 743.29883,635.24219 c 66.31361,-20.42265 114.35924,-39.53646 113.3789,-50.67969 -1.59028,-18.07633 -26.99267,-110.20611 -51.16015,-195.05273 13.32506,146.09878 -15.1232,163.33562 -62.21875,245.73242 z"
           transform="matrix(-0.25516243,0.0699748,0.0699748,0.25516243,186.37643,-50.62267)"
           sodipodi:nodetypes="cscc" />
      </g>
      <g
         id="g8151"
         transform="matrix(-0.96439345,0.26447168,0.26447168,0.96439345,151.28585,17.435671)">
        <g
           id="g8137"
           transform="matrix(0.87099387,0,0,1,1.7848445,0.74212092)">
          <g
             id="g8135"
             transform="matrix(1.0000186,0,0,-0.41886041,-0.00252982,72.621151)">
            <path
               id="path8127"
               style="opacity:0.953717;fill:#dedbe3;stroke-width:1.26925;paint-order:fill markers stroke"
               d="M 38.786904,23.615583 C 81.155218,23.272224 162.74961,23.729178 162.74961,23.729178 L 162.93078,63.408376 7.4001687,63.464036 7.9198626,23.830572 38.786904,23.615579 Z"
               sodipodi:nodetypes="ccccccc" />
            <path
               style="fill:#1f1c24;fill-opacity:1;stroke:#000000;stroke-width:0.264181px;stroke-linecap:butt;stroke-linejoin:miter;stroke-opacity:0.992957"
               d="M 7.9198626,23.830572 49.644,63.526478 7.3,63.375569 7.390772,44.977118 Z"
               id="path8129"
               sodipodi:nodetypes="ccccc" />
            <path
               style="fill:#1f1c24;fill-opacity:1;stroke:#000000;stroke-width:0.265661px;stroke-linecap:butt;stroke-linejoin:miter;stroke-opacity:0.992957"
               d="M 30.410857,23.839997 78.405624,63.06292 H 105.85758 L 57.966426,23.4945 40.396871,23.373705 c -5.396785,-0.03711 -9.986014,0.466292 -9.986014,0.466292 z"
               id="path8131"
               sodipodi:nodetypes="ccccsc" />
            <path
               style="fill:#1f1c24;fill-opacity:1;stroke:#000000;stroke-width:0.265661px;stroke-linecap:butt;stroke-linejoin:miter;stroke-opacity:0.992957"
               d="m 86.544662,23.502919 47.994958,39.801885 h 27.45209 L 113.92863,23.573747 Z"
               id="path8133"
               sodipodi:nodetypes="ccccc" />
          </g>
        </g>
        <path
           id="path8139"
           style="display:inline;opacity:0.953717;fill:url(#linearGradient29906);stroke:url(#radialGradient29908);stroke-width:1.18136;stroke-opacity:0.91488;paint-order:fill markers stroke"
           transform="scale(1,-1)"
           d="m 8.6890965,-158.48148 c 1.6580815,-9.11672 131.1778035,-4.59157 134.8082435,0 3.63044,4.59157 0,95.091709 0,95.091709 H 8.6890965 c 0,0 -1.6580812,-85.974989 0,-95.091709 z"
           sodipodi:nodetypes="zzccz" />
        <g
           id="g8149"
           transform="translate(2.1166667,3.1750001)"
           style="display:inline;opacity:0.872571;fill:#ffffff">
          <path
             style="display:inline;fill:#ffffff;fill-opacity:0.909804;stroke:none;stroke-width:0.245835px;stroke-linecap:butt;stroke-linejoin:miter;stroke-opacity:1"
             d="m 67.169531,155.81481 c 31.2716,-0.19854 52.761899,-27.99187 42.396329,-52.73626 -6.85694,-14.201236 -23.685891,-23.599485 -23.685891,-23.599485 -1.552044,5.305522 -7.111328,5.854526 -8.933106,0.330726 -1.758009,-6.070554 1.41207,-7.798221 3.108978,-9.968498 0,0 -10.313502,4.247895 -15.290873,8.334385 -4.977371,4.086491 -10.675997,14.186007 -10.675997,14.186007 0,0 -6.174045,-6.163088 -3.44843,-14.351339 0,0 -12.348491,4.613675 -17.868044,19.567871 -8.229184,25.552763 -4.3118,54.954153 34.397024,58.236593 z"
             id="path8141"
             sodipodi:nodetypes="ccccczccccc" />
          <path
             style="fill:#d40000;stroke:none;stroke-width:0.286975px;stroke-linecap:butt;stroke-linejoin:miter;stroke-opacity:1"
             d="m 82.262248,104.4796 c -4.299982,-3.41401 -31.900112,11.43412 -31.898106,15.86378 7.686222,12.40636 26.543234,17.55778 30.811265,14.56246 4.550414,-3.09754 6.218966,-26.4911 1.086841,-30.42624 z"
             id="path8143"
             sodipodi:nodetypes="cccc" />
          <path
             id="path8145"
             style="display:inline;opacity:0.161804;fill:#54666c;fill-opacity:0.858824;stroke:none;stroke-width:0.92914px;stroke-linecap:butt;stroke-linejoin:miter;stroke-opacity:1"
             d="m 366.60352,379.4082 c 0,0 -23.63056,12.19225 -42.87943,31.22958 19.48551,-8.76192 41.75849,-17.1047 59.36966,-15.25887 -6.84338,-0.42034 -13.55865,-5.94935 -16.49023,-15.97071 z"
             transform="matrix(-0.26458333,0,0,0.26458333,182.87736,-20.905834)"
             sodipodi:nodetypes="cccc" />
          <path
             id="path8147"
             style="display:inline;opacity:0.776206;fill:#cccccc;fill-opacity:0.909804;stroke:none;stroke-width:0.245835px;stroke-linecap:butt;stroke-linejoin:miter;stroke-opacity:1"
             d="M 80.055869,69.841095 C 66.512695,75.712 61.777222,83.783554 60.219801,98.760075 c 0,0 -4.106631,-3.00634 -6.130823,-6.39839 0,0 5.698982,-10.099725 10.676353,-14.186215 4.97737,-4.086489 15.290538,-8.334375 15.290538,-8.334375 z"
             sodipodi:nodetypes="ccssc" />
        </g>
      </g>
      <g
         id="g8189"
         transform="matrix(-0.96439345,0.26447168,0.26447168,0.96439345,151.28585,17.435671)">
        <g
           id="g8175"
           transform="matrix(0.87099387,0,0,1,1.7848445,0.74212092)">
          <g
             id="g8173"
             transform="matrix(1.0000186,0,0,-0.41886041,-0.00252982,72.621151)">
            <path
               id="path8165"
               style="opacity:0.953717;fill:#dedbe3;stroke-width:1.26925;paint-order:fill markers stroke"
               d="M 38.786904,23.615583 C 81.155218,23.272224 162.74961,23.729178 162.74961,23.729178 L 162.93078,63.408376 7.4001687,63.464036 7.9198626,23.830572 38.786904,23.615579 Z"
               sodipodi:nodetypes="ccccccc" />
            <path
               style="fill:#1f1c24;fill-opacity:1;stroke:#000000;stroke-width:0.264181px;stroke-linecap:butt;stroke-linejoin:miter;stroke-opacity:0.992957"
               d="M 7.9198626,23.830572 49.644,63.526478 7.3,63.375569 7.390772,44.977118 Z"
               id="path8167"
               sodipodi:nodetypes="ccccc" />
            <path
               style="fill:#1f1c24;fill-opacity:1;stroke:#000000;stroke-width:0.265661px;stroke-linecap:butt;stroke-linejoin:miter;stroke-opacity:0.992957"
               d="M 30.410857,23.839997 78.405624,63.06292 H 105.85758 L 57.966426,23.4945 40.396871,23.373705 c -5.396785,-0.03711 -9.986014,0.466292 -9.986014,0.466292 z"
               id="path8169"
               sodipodi:nodetypes="ccccsc" />
            <path
               style="fill:#1f1c24;fill-opacity:1;stroke:#000000;stroke-width:0.265661px;stroke-linecap:butt;stroke-linejoin:miter;stroke-opacity:0.992957"
               d="m 86.544662,23.502919 47.994958,39.801885 h 27.45209 L 113.92863,23.573747 Z"
               id="path8171"
               sodipodi:nodetypes="ccccc" />
          </g>
        </g>
        <path
           id="path8177"
           style="display:inline;opacity:0.953717;fill:url(#linearGradient29910);stroke:url(#radialGradient29912);stroke-width:1.18136;stroke-opacity:0.91488;paint-order:fill markers stroke"
           transform="scale(1,-1)"
           d="m 8.6890965,-158.48148 c 1.6580815,-9.11672 131.1778035,-4.59157 134.8082435,0 3.63044,4.59157 0,95.091709 0,95.091709 H 8.6890965 c 0,0 -1.6580812,-85.974989 0,-95.091709 z"
           sodipodi:nodetypes="zzccz" />
        <g
           id="g8187"
           transform="translate(2.1166667,3.1750001)"
           style="display:inline;opacity:0.872571;fill:#ffffff">
          <path
             style="display:inline;fill:#ffffff;fill-opacity:0.909804;stroke:none;stroke-width:0.245835px;stroke-linecap:butt;stroke-linejoin:miter;stroke-opacity:1"
             d="m 67.169531,155.81481 c 31.2716,-0.19854 52.761899,-27.99187 42.396329,-52.73626 -6.85694,-14.201236 -23.685891,-23.599485 -23.685891,-23.599485 -1.552044,5.305522 -7.111328,5.854526 -8.933106,0.330726 -1.758009,-6.070554 1.41207,-7.798221 3.108978,-9.968498 0,0 -10.313502,4.247895 -15.290873,8.334385 -4.977371,4.086491 -10.675997,14.186007 -10.675997,14.186007 0,0 -6.174045,-6.163088 -3.44843,-14.351339 0,0 -12.348491,4.613675 -17.868044,19.567871 -8.229184,25.552763 -4.3118,54.954153 34.397024,58.236593 z"
             id="path8179"
             sodipodi:nodetypes="ccccczccccc" />
          <path
             style="fill:#d40000;stroke:none;stroke-width:0.286975px;stroke-linecap:butt;stroke-linejoin:miter;stroke-opacity:1"
             d="m 82.262248,104.4796 c -4.299982,-3.41401 -31.900112,11.43412 -31.898106,15.86378 7.686222,12.40636 26.543234,17.55778 30.811265,14.56246 4.550414,-3.09754 6.218966,-26.4911 1.086841,-30.42624 z"
             id="path8181"
             sodipodi:nodetypes="cccc" />
          <path
             id="path8183"
             style="display:inline;opacity:0.161804;fill:#54666c;fill-opacity:0.858824;stroke:none;stroke-width:0.92914px;stroke-linecap:butt;stroke-linejoin:miter;stroke-opacity:1"
             d="m 366.60352,379.4082 c 0,0 -23.63056,12.19225 -42.87943,31.22958 19.48551,-8.76192 41.75849,-17.1047 59.36966,-15.25887 -6.84338,-0.42034 -13.55865,-5.94935 -16.49023,-15.97071 z"
             transform="matrix(-0.26458333,0,0,0.26458333,182.87736,-20.905834)"
             sodipodi:nodetypes="cccc" />
          <path
             id="path8185"
             style="display:inline;opacity:0.776206;fill:#cccccc;fill-opacity:0.909804;stroke:none;stroke-width:0.245835px;stroke-linecap:butt;stroke-linejoin:miter;stroke-opacity:1"
             d="M 80.055869,69.841095 C 66.512695,75.712 61.777222,83.783554 60.219801,98.760075 c 0,0 -4.106631,-3.00634 -6.130823,-6.39839 0,0 5.698982,-10.099725 10.676353,-14.186215 4.97737,-4.086489 15.290538,-8.334375 15.290538,-8.334375 z"
             sodipodi:nodetypes="ccssc" />
        </g>
      </g>
      <g
         id="g8231"
         transform="matrix(-0.96439345,0.26447168,0.26447168,0.96439345,151.28585,17.435671)">
        <g
           id="g8213"
           transform="matrix(0.87099387,0,0,1,1.7848445,0.74212092)">
          <g
             id="g8211"
             transform="matrix(1.0000186,0,0,-0.41886041,-0.00252982,72.621151)">
            <path
               id="path8203"
               style="opacity:0.953717;fill:#dedbe3;stroke-width:1.26925;paint-order:fill markers stroke"
               d="M 38.786904,23.615583 C 81.155218,23.272224 162.74961,23.729178 162.74961,23.729178 L 162.93078,63.408376 7.4001687,63.464036 7.9198626,23.830572 38.786904,23.615579 Z"
               sodipodi:nodetypes="ccccccc" />
            <path
               style="fill:#1f1c24;fill-opacity:1;stroke:#000000;stroke-width:0.264181px;stroke-linecap:butt;stroke-linejoin:miter;stroke-opacity:0.992957"
               d="M 7.9198626,23.830572 49.644,63.526478 7.3,63.375569 7.390772,44.977118 Z"
               id="path8205"
               sodipodi:nodetypes="ccccc" />
            <path
               style="fill:#1f1c24;fill-opacity:1;stroke:#000000;stroke-width:0.265661px;stroke-linecap:butt;stroke-linejoin:miter;stroke-opacity:0.992957"
               d="M 30.410857,23.839997 78.405624,63.06292 H 105.85758 L 57.966426,23.4945 40.396871,23.373705 c -5.396785,-0.03711 -9.986014,0.466292 -9.986014,0.466292 z"
               id="path8207"
               sodipodi:nodetypes="ccccsc" />
            <path
               style="fill:#1f1c24;fill-opacity:1;stroke:#000000;stroke-width:0.265661px;stroke-linecap:butt;stroke-linejoin:miter;stroke-opacity:0.992957"
               d="m 86.544662,23.502919 47.994958,39.801885 h 27.45209 L 113.92863,23.573747 Z"
               id="path8209"
               sodipodi:nodetypes="ccccc" />
          </g>
          <g
             id="g8201"
             transform="matrix(0.99999529,0.00267532,-0.00202825,0.57514051,0.20185704,6.3559609)">
            <path
               id="path8193"
               style="opacity:0.953717;fill:#dedbe3;stroke-width:1.26925;paint-order:fill markers stroke"
               d="m 38.786904,23.615583 c 42.368314,-0.343359 115.642146,-0.347236 122.357886,-0.347236 2.8695,0 1.78599,40.140029 1.78599,40.140029 L 7.4001687,63.464036 c 0,0 0.116118,-8.635017 -0.217734,-16.891329 0,-18.675781 13.1491433,-22.957128 31.6044693,-22.957128 z"
               sodipodi:nodetypes="csccccc" />
            <path
               style="fill:#1f1c24;fill-opacity:1;stroke:#000000;stroke-width:0.264181px;stroke-linecap:butt;stroke-linejoin:miter;stroke-opacity:0.992957"
               d="M 10.087883,34.33703 49.644,63.526478 7.3,63.375569 7.390772,44.977118 C 7.4248387,38.07219 10.087883,34.33703 10.087883,34.33703 Z"
               id="path8195"
               sodipodi:nodetypes="cccsc" />
            <path
               style="fill:#1f1c24;fill-opacity:1;stroke:#000000;stroke-width:0.265661px;stroke-linecap:butt;stroke-linejoin:miter;stroke-opacity:0.992957"
               d="M 29.923793,24.081881 77.91856,63.304804 h 27.45196 L 57.479362,23.736384 39.909807,23.615589 c -5.396785,-0.0371 -9.986014,0.466292 -9.986014,0.466292 z"
               id="path8197"
               sodipodi:nodetypes="ccccsc" />
            <path
               style="fill:#1f1c24;fill-opacity:1;stroke:#000000;stroke-width:0.265661px;stroke-linecap:butt;stroke-linejoin:miter;stroke-opacity:0.992957"
               d="m 86.544662,23.502919 47.994958,39.801885 h 27.45209 L 113.92863,23.573747 Z"
               id="path8199"
               sodipodi:nodetypes="ccccc" />
          </g>
        </g>
        <path
           id="path8215"
           style="display:inline;opacity:0.953717;fill:url(#linearGradient28431);stroke:url(#radialGradient27124);stroke-width:1.18136;stroke-opacity:0.91488;paint-order:fill markers stroke"
           transform="scale(1,-1)"
           d="m 8.6890965,-158.48148 c 1.6580815,-9.11672 131.1778035,-4.59157 134.8082435,0 3.63044,4.59157 0,95.091709 0,95.091709 H 8.6890965 c 0,0 -1.6580812,-85.974989 0,-95.091709 z"
           sodipodi:nodetypes="zzccz" />
        <g
           id="g8227"
           transform="translate(2.1166667,3.1750001)"
           style="display:inline;opacity:0.872571;fill:#ffffff">
          <path
             style="display:inline;fill:#ffffff;fill-opacity:0.909804;stroke:none;stroke-width:0.245835px;stroke-linecap:butt;stroke-linejoin:miter;stroke-opacity:1"
             d="m 67.169531,155.81481 c 31.2716,-0.19854 52.761899,-27.99187 42.396329,-52.73626 -6.85694,-14.201236 -23.685891,-23.599485 -23.685891,-23.599485 -1.552044,5.305522 -7.111328,5.854526 -8.933106,0.330726 -1.758009,-6.070554 1.41207,-7.798221 3.108978,-9.968498 0,0 -10.313502,4.247895 -15.290873,8.334385 -4.977371,4.086491 -10.675997,14.186007 -10.675997,14.186007 0,0 -6.174045,-6.163088 -3.44843,-14.351339 0,0 -12.348491,4.613675 -17.868044,19.567871 -8.229184,25.552763 -4.3118,54.954153 34.397024,58.236593 z"
             id="path8217"
             sodipodi:nodetypes="ccccczccccc" />
          <path
             style="fill:#d40000;stroke:none;stroke-width:0.286975px;stroke-linecap:butt;stroke-linejoin:miter;stroke-opacity:1"
             d="m 82.262248,104.4796 c -4.299982,-3.41401 -31.900112,11.43412 -31.898106,15.86378 7.686222,12.40636 26.543234,17.55778 30.811265,14.56246 4.550414,-3.09754 6.218966,-26.4911 1.086841,-30.42624 z"
             id="path8219"
             sodipodi:nodetypes="cccc" />
          <path
             id="path8221"
             style="display:inline;opacity:0.161804;fill:#54666c;fill-opacity:0.858824;stroke:none;stroke-width:0.92914px;stroke-linecap:butt;stroke-linejoin:miter;stroke-opacity:1"
             d="m 366.60352,379.4082 c 0,0 -23.63056,12.19225 -42.87943,31.22958 19.48551,-8.76192 41.75849,-17.1047 59.36966,-15.25887 -6.84338,-0.42034 -13.55865,-5.94935 -16.49023,-15.97071 z"
             transform="matrix(-0.26458333,0,0,0.26458333,182.87736,-20.905834)"
             sodipodi:nodetypes="cccc" />
          <path
             id="path8223"
             style="display:inline;opacity:0.776206;fill:#cccccc;fill-opacity:0.909804;stroke:none;stroke-width:0.245835px;stroke-linecap:butt;stroke-linejoin:miter;stroke-opacity:1"
             d="M 80.055869,69.841095 C 66.512695,75.712 61.777222,83.783554 60.219801,98.760075 c 0,0 -4.106631,-3.00634 -6.130823,-6.39839 0,0 5.698982,-10.099725 10.676353,-14.186215 4.97737,-4.086489 15.290538,-8.334375 15.290538,-8.334375 z"
             sodipodi:nodetypes="ccssc" />
          <path
             id="path8225"
             style="fill:#aa0000;stroke:none;stroke-width:1.08463px;stroke-linecap:butt;stroke-linejoin:miter;stroke-opacity:1"
             d="m 591.06641,579.41602 c 25.99691,-12.21657 60.16458,-41.65648 71.04492,-78.51954 -1.65697,-6.05287 -18.91138,-13.55869 -40.48418,-19.69986 22.55574,24.81687 14.54826,61.15141 -30.56074,98.2194 z"
             transform="matrix(-0.25516243,0.0699748,0.0699748,0.25516243,184.25977,-53.79767)"
             sodipodi:nodetypes="cccc" />
        </g>
        <path
           id="path8229"
           style="display:inline;opacity:0.394176;fill:#536753;fill-opacity:1;stroke:url(#radialGradient3808);stroke-width:4.46498;stroke-opacity:0.91488;paint-order:fill markers stroke"
           d="m 743.29883,635.24219 c 66.31361,-20.42265 114.35924,-39.53646 113.3789,-50.67969 -1.59028,-18.07633 -26.99267,-110.20611 -51.16015,-195.05273 13.32506,146.09878 -15.1232,163.33562 -62.21875,245.73242 z"
           transform="matrix(-0.25516243,0.0699748,0.0699748,0.25516243,186.37643,-50.62267)"
           sodipodi:nodetypes="cscc" />
      </g>
    </g>
  </g>
</svg>
