<?xml version="1.0" encoding="UTF-8" standalone="no"?>
<!-- Created with Inkscape (http://www.inkscape.org/) -->

<svg
   width="66.601418mm"
   height="73.615318mm"
   viewBox="0 0 66.601417 73.615318"
   version="1.1"
   id="svg5"
   inkscape:version="1.1.1 (1:1.1+202109281949+c3084ef5ed)"
   sodipodi:docname="video-2.svg"
   xmlns:inkscape="http://www.inkscape.org/namespaces/inkscape"
   xmlns:sodipodi="http://sodipodi.sourceforge.net/DTD/sodipodi-0.dtd"
   xmlns="http://www.w3.org/2000/svg"
   xmlns:svg="http://www.w3.org/2000/svg">
  <sodipodi:namedview
     id="namedview7"
     pagecolor="#ffffff"
     bordercolor="#cccccc"
     borderopacity="1"
     inkscape:pageshadow="0"
     inkscape:pageopacity="1"
     inkscape:pagecheckerboard="0"
     inkscape:document-units="mm"
     showgrid="false"
     inkscape:zoom="0.41228387"
     inkscape:cx="110.36085"
     inkscape:cy="175.84971"
     inkscape:window-width="1366"
     inkscape:window-height="704"
     inkscape:window-x="0"
     inkscape:window-y="27"
     inkscape:window-maximized="1"
     inkscape:current-layer="g28773"
     inkscape:lockguides="false"
     fit-margin-top="0"
     fit-margin-left="0"
     fit-margin-right="0"
     fit-margin-bottom="0" />
  <defs
     id="defs2">
    <filter
       inkscape:collect="always"
       style="color-interpolation-filters:sRGB"
       id="filter28238"
       x="-0.24713647"
       y="-0.15005841"
       width="1.4942729"
       height="1.3001168">
      <feGaussianBlur
         inkscape:collect="always"
         stdDeviation="1.7771417"
         id="feGaussianBlur28240" />
    </filter>
    <filter
       inkscape:collect="always"
       style="color-interpolation-filters:sRGB"
       id="filter28764"
       x="-0.13526739"
       y="-0.18211265"
       width="1.2705348"
       height="1.3642253">
      <feGaussianBlur
         inkscape:collect="always"
         stdDeviation="1.6545829"
         id="feGaussianBlur28766" />
    </filter>
    <filter
       inkscape:collect="always"
       style="color-interpolation-filters:sRGB"
       id="filter28983"
       x="-0.36710467"
       y="-0.22290171"
       width="1.7342093"
       height="1.4458034">
      <feGaussianBlur
         inkscape:collect="always"
         stdDeviation="2.6398248"
         id="feGaussianBlur28981" />
    </filter>
  </defs>
  <g
     inkscape:label="Capa 1"
     inkscape:groupmode="layer"
     id="layer1"
     transform="translate(-85.84759,-71.185998)">
    <g
       id="g28773"
       transform="matrix(0.67709477,-0.14451373,0.14451373,0.67709477,-14.802461,155.4481)">
      <path
         id="path28572"
         style="fill:#cccccc;fill-opacity:1;stroke:#000000;stroke-width:0.692344px;stroke-linecap:butt;stroke-linejoin:miter;stroke-opacity:1"
         d="m 556.25195,142.38477 -33.89843,127.41796 -26.48777,81.87766 94.73581,-194.72531 z"
         transform="matrix(0.31937899,0.20985656,-0.20985656,0.31937899,60.937121,-201.14831)"
         sodipodi:nodetypes="ccccc" />
      <path
         style="fill:#3fc3ba;fill-opacity:0.255116;stroke:none;stroke-width:0.163597px;stroke-linecap:butt;stroke-linejoin:miter;stroke-opacity:1;filter:url(#filter28764)"
         d="m 205.59964,-31.980088 -23.45032,21.805179 29.35666,-15.301279 z"
         id="path28726"
         transform="rotate(2.7734457,192.75369,-14.973522)"
         sodipodi:nodetypes="cccc" />
      <ellipse
         style="opacity:1;fill:#4d4d4d;fill-opacity:1;stroke:#000000;stroke-width:0.313143;stroke-miterlimit:4;stroke-dasharray:none;stroke-opacity:1;paint-order:fill markers stroke"
         id="ellipse29796"
         cx="196.774"
         cy="86.465553"
         rx="16.236126"
         ry="27.164574"
         transform="matrix(0.8407564,-0.54141359,0.58596283,0.81033793,0,0)" />
      <path
         style="opacity:1;fill:#333333;stroke:#000000;stroke-width:0.264583px;stroke-linecap:butt;stroke-linejoin:miter;stroke-opacity:1"
         d="m 201.60407,-51.024384 32.07271,-14.121956 16.63446,17.237014 -21.68084,29.758955 c 0,0 -7.95223,-0.945923 -18.72818,-12.130949 -10.77594,-11.185027 -8.29815,-20.743064 -8.29815,-20.743064 z"
         id="path26601"
         sodipodi:nodetypes="cccczc" />
      <ellipse
         style="opacity:1;fill:#4d4d4d;fill-opacity:0.999334;stroke:#000000;stroke-width:0.219;stroke-miterlimit:4;stroke-dasharray:none;stroke-opacity:1;paint-order:fill markers stroke"
         id="path25738"
         cx="220.24379"
         cy="115.98184"
         rx="11.444623"
         ry="18.848553"
         transform="rotate(-41.105736)" />
      <ellipse
         style="opacity:1;mix-blend-mode:normal;fill:#333333;fill-opacity:0.397271;stroke:none;stroke-width:0.165124;stroke-miterlimit:4;stroke-dasharray:none;stroke-opacity:1;paint-order:fill markers stroke;filter:url(#filter28238)"
         id="ellipse28164"
         cx="220.85579"
         cy="116.07237"
         rx="8.6291189"
         ry="14.211599"
         transform="matrix(0.52461266,-0.45774129,0.45774129,0.52461266,73.966608,-17.154988)" />
      <ellipse
         style="opacity:0.504421;mix-blend-mode:normal;fill:#666666;fill-opacity:0.932829;stroke:none;stroke-width:0.165124;stroke-miterlimit:4;stroke-dasharray:none;stroke-opacity:1;paint-order:fill markers stroke;filter:url(#filter28983)"
         id="ellipse28797"
         cx="220.85579"
         cy="116.07237"
         rx="8.6291189"
         ry="14.211599"
         transform="matrix(-0.35881649,0.88412056,-0.83813442,0.02931061,400.98676,-235.6857)" />
      <path
         id="ellipse2015"
         style="opacity:1;fill:#333333;fill-opacity:1;stroke:none;stroke-width:0.818816;stroke-miterlimit:4;stroke-dasharray:none;stroke-opacity:1;paint-order:fill markers stroke"
         d="m 754.56445,51.136719 c -7.8969,0.82354 -14.46285,3.676789 -19.17383,8.332031 -11.91155,11.84788 -10.40872,33.682883 3.83399,55.70508 -5.77827,-36.730444 2.18288,-53.587023 15.33984,-64.037111 z"
         transform="matrix(0.37373767,0.0797676,-0.0797676,0.37373767,-69.912608,-139.36813)"
         sodipodi:nodetypes="cccc" />
      <path
         id="path2551"
         style="opacity:0.528125;fill:#1a1a1a;stroke:none;stroke-width:0.692344px;stroke-linecap:butt;stroke-linejoin:miter;stroke-opacity:1"
         d="m 783.79883,48.40625 -40.70899,29.373047 c 0,0 -0.87522,20.678484 23.08789,41.322263 -11.30602,-39.353235 4.83672,-50.391136 17.6211,-70.69531 z"
         transform="matrix(0.37373767,0.0797676,-0.0797676,0.37373767,-69.912608,-139.36813)"
         sodipodi:nodetypes="cccc" />
      <path
         id="ellipse3256"
         style="opacity:0.409154;fill:#1a1a1a;fill-opacity:0.999334;stroke:#000000;stroke-width:0.573065;stroke-miterlimit:4;stroke-dasharray:none;stroke-opacity:1;paint-order:fill markers stroke"
         d="m 806.65234,6.9296875 c -0.97259,0.8364363 -1.84608,1.7588536 -2.61523,2.7617187 -9.91856,13.2359428 -0.28734,37.2081738 21.51172,53.5429688 2.90803,2.169617 5.95183,4.137253 9.07617,5.867187 C 820.2969,50.654996 808.73828,34.136804 806.65234,6.9296875 Z"
         transform="matrix(0.37373767,0.0797676,-0.0797676,0.37373767,-69.912608,-139.36813)"
         sodipodi:nodetypes="ccccc" />
    </g>
  </g>
</svg>
