<?xml version="1.0" encoding="UTF-8" standalone="no"?>
<!-- Created with Inkscape (http://www.inkscape.org/) -->

<svg
   width="280.24536mm"
   height="227.68808mm"
   viewBox="0 0 280.24536 227.68808"
   version="1.1"
   id="svg5"
   inkscape:version="1.1.1 (1:1.1+202109281949+c3084ef5ed)"
   sodipodi:docname="video.svg"
   xmlns:inkscape="http://www.inkscape.org/namespaces/inkscape"
   xmlns:sodipodi="http://sodipodi.sourceforge.net/DTD/sodipodi-0.dtd"
   xmlns:xlink="http://www.w3.org/1999/xlink"
   xmlns="http://www.w3.org/2000/svg"
   xmlns:svg="http://www.w3.org/2000/svg">
  <sodipodi:namedview
     id="namedview7"
     pagecolor="#ffffff"
     bordercolor="#cccccc"
     borderopacity="1"
     inkscape:pageshadow="0"
     inkscape:pageopacity="1"
     inkscape:pagecheckerboard="0"
     inkscape:document-units="mm"
     showgrid="false"
     inkscape:zoom="0.41228387"
     inkscape:cx="1129.0764"
     inkscape:cy="141.89253"
     inkscape:window-width="1366"
     inkscape:window-height="704"
     inkscape:window-x="0"
     inkscape:window-y="27"
     inkscape:window-maximized="1"
     inkscape:current-layer="g25305"
     inkscape:lockguides="false"
     fit-margin-top="0"
     fit-margin-left="0"
     fit-margin-right="0"
     fit-margin-bottom="0" />
  <defs
     id="defs2">
    <linearGradient
       inkscape:collect="always"
       id="linearGradient28429">
      <stop
         style="stop-color:#53676c;stop-opacity:1;"
         offset="0"
         id="stop28425" />
      <stop
         style="stop-color:#53676c;stop-opacity:0;"
         offset="1"
         id="stop28427" />
    </linearGradient>
    <linearGradient
       inkscape:collect="always"
       id="linearGradient27118">
      <stop
         style="stop-color:#000000;stop-opacity:1;"
         offset="0"
         id="stop27114" />
      <stop
         style="stop-color:#000000;stop-opacity:0;"
         offset="1"
         id="stop27116" />
    </linearGradient>
    <radialGradient
       inkscape:collect="always"
       xlink:href="#linearGradient27118"
       id="radialGradient27124"
       cx="75.668114"
       cy="110.93562"
       fx="75.668114"
       fy="110.93562"
       r="67.569695"
       gradientTransform="matrix(1.0063191,0,0,0.71237053,-0.0530492,-189.96288)"
       gradientUnits="userSpaceOnUse" />
    <linearGradient
       inkscape:collect="always"
       xlink:href="#linearGradient28429"
       id="linearGradient28431"
       x1="52.27198"
       y1="-63.522354"
       x2="58.667782"
       y2="-226.07846"
       gradientUnits="userSpaceOnUse" />
    <filter
       inkscape:collect="always"
       style="color-interpolation-filters:sRGB"
       id="filter28734"
       x="-0.018229317"
       y="-6.118917"
       width="1.0364586"
       height="13.237834">
      <feGaussianBlur
         inkscape:collect="always"
         stdDeviation="0.85234836"
         id="feGaussianBlur28736" />
    </filter>
    <linearGradient
       inkscape:collect="always"
       xlink:href="#linearGradient28429"
       id="linearGradient25418"
       gradientUnits="userSpaceOnUse"
       x1="52.27198"
       y1="-63.522354"
       x2="58.667782"
       y2="-226.07846" />
    <radialGradient
       inkscape:collect="always"
       xlink:href="#linearGradient27118"
       id="radialGradient25420"
       gradientUnits="userSpaceOnUse"
       gradientTransform="matrix(1.0063191,0,0,0.71237053,-0.0530492,-189.96288)"
       cx="75.668114"
       cy="110.93562"
       fx="75.668114"
       fy="110.93562"
       r="67.569695" />
    <filter
       inkscape:collect="always"
       style="color-interpolation-filters:sRGB"
       id="filter25618"
       x="-0.056841938"
       y="-0.047766854"
       width="1.1166275"
       height="1.0992304">
      <feGaussianBlur
         inkscape:collect="always"
         stdDeviation="3.1806725"
         id="feGaussianBlur25620" />
    </filter>
    <filter
       inkscape:collect="always"
       style="color-interpolation-filters:sRGB"
       id="filter28238"
       x="-0.24713647"
       y="-0.15005841"
       width="1.4942729"
       height="1.3001168">
      <feGaussianBlur
         inkscape:collect="always"
         stdDeviation="1.7771417"
         id="feGaussianBlur28240" />
    </filter>
    <filter
       inkscape:collect="always"
       style="color-interpolation-filters:sRGB"
       id="filter28764"
       x="-0.13526739"
       y="-0.18211265"
       width="1.2705348"
       height="1.3642253">
      <feGaussianBlur
         inkscape:collect="always"
         stdDeviation="1.6545829"
         id="feGaussianBlur28766" />
    </filter>
    <filter
       inkscape:collect="always"
       style="color-interpolation-filters:sRGB"
       id="filter28983"
       x="-0.36710467"
       y="-0.22290171"
       width="1.7342093"
       height="1.4458034">
      <feGaussianBlur
         inkscape:collect="always"
         stdDeviation="2.6398248"
         id="feGaussianBlur28981" />
    </filter>
    <linearGradient
       inkscape:collect="always"
       xlink:href="#linearGradient28429"
       id="linearGradient29906"
       gradientUnits="userSpaceOnUse"
       x1="52.27198"
       y1="-63.522354"
       x2="58.667782"
       y2="-226.07846" />
    <radialGradient
       inkscape:collect="always"
       xlink:href="#linearGradient27118"
       id="radialGradient29908"
       gradientUnits="userSpaceOnUse"
       gradientTransform="matrix(1.0063191,0,0,0.71237053,-0.0530492,-189.96288)"
       cx="75.668114"
       cy="110.93562"
       fx="75.668114"
       fy="110.93562"
       r="67.569695" />
    <linearGradient
       inkscape:collect="always"
       xlink:href="#linearGradient28429"
       id="linearGradient29910"
       gradientUnits="userSpaceOnUse"
       x1="52.27198"
       y1="-63.522354"
       x2="58.667782"
       y2="-226.07846" />
    <radialGradient
       inkscape:collect="always"
       xlink:href="#linearGradient27118"
       id="radialGradient29912"
       gradientUnits="userSpaceOnUse"
       gradientTransform="matrix(1.0063191,0,0,0.71237053,-0.0530492,-189.96288)"
       cx="75.668114"
       cy="110.93562"
       fx="75.668114"
       fy="110.93562"
       r="67.569695" />
    <filter
       inkscape:collect="always"
       style="color-interpolation-filters:sRGB"
       id="filter1602"
       x="-1.2544226"
       y="-2.7197937"
       width="4.1785521"
       height="3.7537432">
      <feGaussianBlur
         inkscape:collect="always"
         stdDeviation="0.88637536"
         id="feGaussianBlur1604" />
    </filter>
    <radialGradient
       inkscape:collect="always"
       xlink:href="#linearGradient27118"
       id="radialGradient3808"
       gradientUnits="userSpaceOnUse"
       gradientTransform="matrix(-3.6679844,1.0058944,-0.71206991,-2.5965561,920.01046,690.57188)"
       cx="75.668114"
       cy="110.93562"
       fx="75.668114"
       fy="110.93562"
       r="67.569695" />
  </defs>
  <g
     inkscape:label="Capa 1"
     inkscape:groupmode="layer"
     id="layer1"
     transform="translate(41.842623,-16.036773)">
    <g
       id="g25416"
       transform="matrix(-1.3222722,0.38105126,0.43909396,0.62849847,162.52767,77.207321)"
       style="opacity:0.440047;mix-blend-mode:normal;filter:url(#filter25618)">
      <g
         id="g25402"
         transform="matrix(0.87099387,0,0,1,1.7848445,0.74212092)">
        <path
           style="opacity:0.523316;mix-blend-mode:normal;fill:#1f1c24;fill-opacity:1;stroke:#050000;stroke-width:1.2483;stroke-linecap:butt;stroke-linejoin:miter;stroke-miterlimit:4;stroke-dasharray:none;stroke-opacity:0.91488;filter:url(#filter28734)"
           d="M 49.642394,46.012424 161.99219,45.576108"
           id="path25380"
           sodipodi:nodetypes="cc" />
        <g
           id="g25390"
           transform="matrix(0.97716574,-0.1850675,0.14030591,0.56201026,-6.584133,19.958101)">
          <path
             id="path25382"
             style="opacity:0.953717;fill:#dedbe3;stroke-width:1.26925;paint-order:fill markers stroke"
             d="m 38.786904,23.615583 c 42.368314,-0.343359 115.642146,-0.347236 122.357886,-0.347236 2.8695,0 1.78599,40.140029 1.78599,40.140029 L 7.4001687,63.464036 c 0,0 0.116118,-8.635017 -0.217734,-16.891329 0,-18.675781 13.1491433,-22.957128 31.6044693,-22.957128 z"
             sodipodi:nodetypes="csccccc" />
          <path
             style="fill:#1f1c24;fill-opacity:1;stroke:#000000;stroke-width:0.264181px;stroke-linecap:butt;stroke-linejoin:miter;stroke-opacity:0.992957"
             d="M 10.087883,34.33703 49.644,63.526478 7.3,63.375569 7.390772,44.977118 C 7.4248387,38.07219 10.087883,34.33703 10.087883,34.33703 Z"
             id="path25384"
             sodipodi:nodetypes="cccsc" />
          <path
             style="fill:#1f1c24;fill-opacity:1;stroke:#000000;stroke-width:0.265661px;stroke-linecap:butt;stroke-linejoin:miter;stroke-opacity:0.992957"
             d="M 29.923793,24.081881 77.91856,63.304804 h 27.45196 L 57.479362,23.736384 39.909807,23.615589 c -5.396785,-0.0371 -9.986014,0.466292 -9.986014,0.466292 z"
             id="path25386"
             sodipodi:nodetypes="ccccsc" />
          <path
             style="fill:#1f1c24;fill-opacity:1;stroke:#000000;stroke-width:0.265661px;stroke-linecap:butt;stroke-linejoin:miter;stroke-opacity:0.992957"
             d="m 86.544662,23.502919 47.994958,39.801885 h 27.45209 L 113.92863,23.573747 Z"
             id="path25388"
             sodipodi:nodetypes="ccccc" />
        </g>
        <g
           id="g25400"
           transform="matrix(1.0000186,0,0,-0.41886041,-0.00252982,72.621151)">
          <path
             id="path25392"
             style="opacity:0.953717;fill:#dedbe3;stroke-width:1.26925;paint-order:fill markers stroke"
             d="M 38.786904,23.615583 C 81.155218,23.272224 162.74961,23.729178 162.74961,23.729178 L 162.93078,63.408376 7.4001687,63.464036 7.9198626,23.830572 38.786904,23.615579 Z"
             sodipodi:nodetypes="ccccccc" />
          <path
             style="fill:#1f1c24;fill-opacity:1;stroke:#000000;stroke-width:0.264181px;stroke-linecap:butt;stroke-linejoin:miter;stroke-opacity:0.992957"
             d="M 7.9198626,23.830572 49.644,63.526478 7.3,63.375569 7.390772,44.977118 Z"
             id="path25394"
             sodipodi:nodetypes="ccccc" />
          <path
             style="fill:#1f1c24;fill-opacity:1;stroke:#000000;stroke-width:0.265661px;stroke-linecap:butt;stroke-linejoin:miter;stroke-opacity:0.992957"
             d="M 30.410857,23.839997 78.405624,63.06292 H 105.85758 L 57.966426,23.4945 40.396871,23.373705 c -5.396785,-0.03711 -9.986014,0.466292 -9.986014,0.466292 z"
             id="path25396"
             sodipodi:nodetypes="ccccsc" />
          <path
             style="fill:#1f1c24;fill-opacity:1;stroke:#000000;stroke-width:0.265661px;stroke-linecap:butt;stroke-linejoin:miter;stroke-opacity:0.992957"
             d="m 86.544662,23.502919 47.994958,39.801885 h 27.45209 L 113.92863,23.573747 Z"
             id="path25398"
             sodipodi:nodetypes="ccccc" />
        </g>
      </g>
      <path
         id="path25404"
         style="display:inline;opacity:0.953717;fill:url(#linearGradient25418);stroke:url(#radialGradient25420);stroke-width:1.18136;stroke-opacity:0.91488;paint-order:fill markers stroke"
         transform="scale(1,-1)"
         d="m 8.6890965,-158.48148 c 1.6580815,-9.11672 131.1778035,-4.59157 134.8082435,0 3.63044,4.59157 0,95.091709 0,95.091709 H 8.6890965 c 0,0 -1.6580812,-85.974989 0,-95.091709 z"
         sodipodi:nodetypes="zzccz" />
      <g
         id="g25414"
         transform="translate(2.1166667,3.1750001)"
         style="display:inline;opacity:0.872571;fill:#ffffff">
        <path
           style="display:inline;fill:#ffffff;fill-opacity:0.909804;stroke:none;stroke-width:0.245835px;stroke-linecap:butt;stroke-linejoin:miter;stroke-opacity:1"
           d="m 67.169531,155.81481 c 31.2716,-0.19854 52.761899,-27.99187 42.396329,-52.73626 -6.85694,-14.201236 -23.685891,-23.599485 -23.685891,-23.599485 -1.552044,5.305522 -7.111328,5.854526 -8.933106,0.330726 -1.758009,-6.070554 1.41207,-7.798221 3.108978,-9.968498 0,0 -10.313502,4.247895 -15.290873,8.334385 -4.977371,4.086491 -10.675997,14.186007 -10.675997,14.186007 0,0 -6.174045,-6.163088 -3.44843,-14.351339 0,0 -12.348491,4.613675 -17.868044,19.567871 -8.229184,25.552763 -4.3118,54.954153 34.397024,58.236593 z"
           id="path25406"
           sodipodi:nodetypes="ccccczccccc" />
        <path
           style="fill:#d40000;stroke:none;stroke-width:0.286975px;stroke-linecap:butt;stroke-linejoin:miter;stroke-opacity:1"
           d="m 82.262248,104.4796 c -4.299982,-3.41401 -31.900112,11.43412 -31.898106,15.86378 7.686222,12.40636 26.543234,17.55778 30.811265,14.56246 4.550414,-3.09754 6.218966,-26.4911 1.086841,-30.42624 z"
           id="path25408"
           sodipodi:nodetypes="cccc" />
        <path
           id="path25410"
           style="display:inline;opacity:0.161804;fill:#54666c;fill-opacity:0.858824;stroke:none;stroke-width:0.92914px;stroke-linecap:butt;stroke-linejoin:miter;stroke-opacity:1"
           d="m 366.60352,379.4082 c 0,0 -23.63056,12.19225 -42.87943,31.22958 19.48551,-8.76192 41.75849,-17.1047 59.36966,-15.25887 -6.84338,-0.42034 -13.55865,-5.94935 -16.49023,-15.97071 z"
           transform="matrix(-0.26458333,0,0,0.26458333,182.87736,-20.905834)"
           sodipodi:nodetypes="cccc" />
        <path
           id="path25412"
           style="display:inline;opacity:0.776206;fill:#cccccc;fill-opacity:0.909804;stroke:none;stroke-width:0.245835px;stroke-linecap:butt;stroke-linejoin:miter;stroke-opacity:1"
           d="M 80.055869,69.841095 C 66.512695,75.712 61.777222,83.783554 60.219801,98.760075 c 0,0 -4.106631,-3.00634 -6.130823,-6.39839 0,0 5.698982,-10.099725 10.676353,-14.186215 4.97737,-4.086489 15.290538,-8.334375 15.290538,-8.334375 z"
           sodipodi:nodetypes="ccssc" />
      </g>
    </g>
    <g
       id="g28551"
       transform="matrix(-0.96439345,0.26447168,0.26447168,0.96439345,151.28585,17.435671)">
      <g
         id="g7346"
         transform="matrix(0.87099387,0,0,1,1.7848445,0.74212092)">
        <path
           style="opacity:0.523316;mix-blend-mode:normal;fill:#1f1c24;fill-opacity:1;stroke:#050000;stroke-width:1.2483;stroke-linecap:butt;stroke-linejoin:miter;stroke-miterlimit:4;stroke-dasharray:none;stroke-opacity:0.91488;filter:url(#filter28734)"
           d="M 49.642394,46.012424 161.99219,45.576108"
           id="path7396"
           sodipodi:nodetypes="cc" />
        <g
           id="g4023"
           transform="matrix(0.97716574,-0.1850675,0.14030591,0.56201026,-6.584133,19.958101)">
          <path
             id="rect846"
             style="opacity:0.953717;fill:#dedbe3;stroke-width:1.26925;paint-order:fill markers stroke"
             d="m 38.786904,23.615583 c 42.368314,-0.343359 115.642146,-0.347236 122.357886,-0.347236 2.8695,0 1.78599,40.140029 1.78599,40.140029 L 7.4001687,63.464036 c 0,0 0.116118,-8.635017 -0.217734,-16.891329 0,-18.675781 13.1491433,-22.957128 31.6044693,-22.957128 z"
             sodipodi:nodetypes="csccccc" />
          <path
             style="fill:#1f1c24;fill-opacity:1;stroke:#000000;stroke-width:0.264181px;stroke-linecap:butt;stroke-linejoin:miter;stroke-opacity:0.992957"
             d="M 10.087883,34.33703 49.644,63.526478 7.3,63.375569 7.390772,44.977118 C 7.4248387,38.07219 10.087883,34.33703 10.087883,34.33703 Z"
             id="path3325"
             sodipodi:nodetypes="cccsc" />
          <path
             style="fill:#1f1c24;fill-opacity:1;stroke:#000000;stroke-width:0.265661px;stroke-linecap:butt;stroke-linejoin:miter;stroke-opacity:0.992957"
             d="M 29.923793,24.081881 77.91856,63.304804 h 27.45196 L 57.479362,23.736384 39.909807,23.615589 c -5.396785,-0.0371 -9.986014,0.466292 -9.986014,0.466292 z"
             id="path4190"
             sodipodi:nodetypes="ccccsc" />
          <path
             style="fill:#1f1c24;fill-opacity:1;stroke:#000000;stroke-width:0.265661px;stroke-linecap:butt;stroke-linejoin:miter;stroke-opacity:0.992957"
             d="m 86.544662,23.502919 47.994958,39.801885 h 27.45209 L 113.92863,23.573747 Z"
             id="path5152"
             sodipodi:nodetypes="ccccc" />
        </g>
        <g
           id="g5791"
           transform="matrix(1.0000186,0,0,-0.41886041,-0.00252982,72.621151)">
          <path
             id="path5783"
             style="opacity:0.953717;fill:#dedbe3;stroke-width:1.26925;paint-order:fill markers stroke"
             d="M 38.786904,23.615583 C 81.155218,23.272224 162.74961,23.729178 162.74961,23.729178 L 162.93078,63.408376 7.4001687,63.464036 7.9198626,23.830572 38.786904,23.615579 Z"
             sodipodi:nodetypes="ccccccc" />
          <path
             style="fill:#1f1c24;fill-opacity:1;stroke:#000000;stroke-width:0.264181px;stroke-linecap:butt;stroke-linejoin:miter;stroke-opacity:0.992957"
             d="M 7.9198626,23.830572 49.644,63.526478 7.3,63.375569 7.390772,44.977118 Z"
             id="path5785"
             sodipodi:nodetypes="ccccc" />
          <path
             style="fill:#1f1c24;fill-opacity:1;stroke:#000000;stroke-width:0.265661px;stroke-linecap:butt;stroke-linejoin:miter;stroke-opacity:0.992957"
             d="M 30.410857,23.839997 78.405624,63.06292 H 105.85758 L 57.966426,23.4945 40.396871,23.373705 c -5.396785,-0.03711 -9.986014,0.466292 -9.986014,0.466292 z"
             id="path5787"
             sodipodi:nodetypes="ccccsc" />
          <path
             style="fill:#1f1c24;fill-opacity:1;stroke:#000000;stroke-width:0.265661px;stroke-linecap:butt;stroke-linejoin:miter;stroke-opacity:0.992957"
             d="m 86.544662,23.502919 47.994958,39.801885 h 27.45209 L 113.92863,23.573747 Z"
             id="path5789"
             sodipodi:nodetypes="ccccc" />
        </g>
      </g>
      <path
         id="rect26894"
         style="display:inline;opacity:0.953717;fill:url(#linearGradient29906);stroke:url(#radialGradient29908);stroke-width:1.18136;stroke-opacity:0.91488;paint-order:fill markers stroke"
         transform="scale(1,-1)"
         d="m 8.6890965,-158.48148 c 1.6580815,-9.11672 131.1778035,-4.59157 134.8082435,0 3.63044,4.59157 0,95.091709 0,95.091709 H 8.6890965 c 0,0 -1.6580812,-85.974989 0,-95.091709 z"
         sodipodi:nodetypes="zzccz" />
      <g
         id="g36680"
         transform="translate(2.1166667,3.1750001)"
         style="display:inline;opacity:0.872571;fill:#ffffff">
        <path
           style="display:inline;fill:#ffffff;fill-opacity:0.909804;stroke:none;stroke-width:0.245835px;stroke-linecap:butt;stroke-linejoin:miter;stroke-opacity:1"
           d="m 67.169531,155.81481 c 31.2716,-0.19854 52.761899,-27.99187 42.396329,-52.73626 -6.85694,-14.201236 -23.685891,-23.599485 -23.685891,-23.599485 -1.552044,5.305522 -7.111328,5.854526 -8.933106,0.330726 -1.758009,-6.070554 1.41207,-7.798221 3.108978,-9.968498 0,0 -10.313502,4.247895 -15.290873,8.334385 -4.977371,4.086491 -10.675997,14.186007 -10.675997,14.186007 0,0 -6.174045,-6.163088 -3.44843,-14.351339 0,0 -12.348491,4.613675 -17.868044,19.567871 -8.229184,25.552763 -4.3118,54.954153 34.397024,58.236593 z"
           id="path11196"
           sodipodi:nodetypes="ccccczccccc" />
        <path
           style="fill:#d40000;stroke:none;stroke-width:0.286975px;stroke-linecap:butt;stroke-linejoin:miter;stroke-opacity:1"
           d="m 82.262248,104.4796 c -4.299982,-3.41401 -31.900112,11.43412 -31.898106,15.86378 7.686222,12.40636 26.543234,17.55778 30.811265,14.56246 4.550414,-3.09754 6.218966,-26.4911 1.086841,-30.42624 z"
           id="path22635"
           sodipodi:nodetypes="cccc" />
        <path
           id="path29237"
           style="display:inline;opacity:0.161804;fill:#54666c;fill-opacity:0.858824;stroke:none;stroke-width:0.92914px;stroke-linecap:butt;stroke-linejoin:miter;stroke-opacity:1"
           d="m 366.60352,379.4082 c 0,0 -23.63056,12.19225 -42.87943,31.22958 19.48551,-8.76192 41.75849,-17.1047 59.36966,-15.25887 -6.84338,-0.42034 -13.55865,-5.94935 -16.49023,-15.97071 z"
           transform="matrix(-0.26458333,0,0,0.26458333,182.87736,-20.905834)"
           sodipodi:nodetypes="cccc" />
        <path
           id="path6140"
           style="display:inline;opacity:0.776206;fill:#cccccc;fill-opacity:0.909804;stroke:none;stroke-width:0.245835px;stroke-linecap:butt;stroke-linejoin:miter;stroke-opacity:1"
           d="M 80.055869,69.841095 C 66.512695,75.712 61.777222,83.783554 60.219801,98.760075 c 0,0 -4.106631,-3.00634 -6.130823,-6.39839 0,0 5.698982,-10.099725 10.676353,-14.186215 4.97737,-4.086489 15.290538,-8.334375 15.290538,-8.334375 z"
           sodipodi:nodetypes="ccssc" />
      </g>
    </g>
    <g
       id="g25265"
       transform="matrix(-0.96439345,0.26447168,0.26447168,0.96439345,151.28585,17.435671)">
      <g
         id="g25251"
         transform="matrix(0.87099387,0,0,1,1.7848445,0.74212092)">
        <path
           style="opacity:0.523316;mix-blend-mode:normal;fill:#1f1c24;fill-opacity:1;stroke:#050000;stroke-width:1.2483;stroke-linecap:butt;stroke-linejoin:miter;stroke-miterlimit:4;stroke-dasharray:none;stroke-opacity:0.91488;filter:url(#filter28734)"
           d="M 49.642394,46.012424 161.99219,45.576108"
           id="path25229"
           sodipodi:nodetypes="cc" />
        <g
           id="g25239"
           transform="matrix(0.97716574,-0.1850675,0.14030591,0.56201026,-6.584133,19.958101)">
          <path
             id="path25231"
             style="opacity:0.953717;fill:#dedbe3;stroke-width:1.26925;paint-order:fill markers stroke"
             d="m 38.786904,23.615583 c 42.368314,-0.343359 115.642146,-0.347236 122.357886,-0.347236 2.8695,0 1.78599,40.140029 1.78599,40.140029 L 7.4001687,63.464036 c 0,0 0.116118,-8.635017 -0.217734,-16.891329 0,-18.675781 13.1491433,-22.957128 31.6044693,-22.957128 z"
             sodipodi:nodetypes="csccccc" />
          <path
             style="fill:#1f1c24;fill-opacity:1;stroke:#000000;stroke-width:0.264181px;stroke-linecap:butt;stroke-linejoin:miter;stroke-opacity:0.992957"
             d="M 10.087883,34.33703 49.644,63.526478 7.3,63.375569 7.390772,44.977118 C 7.4248387,38.07219 10.087883,34.33703 10.087883,34.33703 Z"
             id="path25233"
             sodipodi:nodetypes="cccsc" />
          <path
             style="fill:#1f1c24;fill-opacity:1;stroke:#000000;stroke-width:0.265661px;stroke-linecap:butt;stroke-linejoin:miter;stroke-opacity:0.992957"
             d="M 29.923793,24.081881 77.91856,63.304804 h 27.45196 L 57.479362,23.736384 39.909807,23.615589 c -5.396785,-0.0371 -9.986014,0.466292 -9.986014,0.466292 z"
             id="path25235"
             sodipodi:nodetypes="ccccsc" />
          <path
             style="fill:#1f1c24;fill-opacity:1;stroke:#000000;stroke-width:0.265661px;stroke-linecap:butt;stroke-linejoin:miter;stroke-opacity:0.992957"
             d="m 86.544662,23.502919 47.994958,39.801885 h 27.45209 L 113.92863,23.573747 Z"
             id="path25237"
             sodipodi:nodetypes="ccccc" />
        </g>
        <g
           id="g25249"
           transform="matrix(1.0000186,0,0,-0.41886041,-0.00252982,72.621151)">
          <path
             id="path25241"
             style="opacity:0.953717;fill:#dedbe3;stroke-width:1.26925;paint-order:fill markers stroke"
             d="M 38.786904,23.615583 C 81.155218,23.272224 162.74961,23.729178 162.74961,23.729178 L 162.93078,63.408376 7.4001687,63.464036 7.9198626,23.830572 38.786904,23.615579 Z"
             sodipodi:nodetypes="ccccccc" />
          <path
             style="fill:#1f1c24;fill-opacity:1;stroke:#000000;stroke-width:0.264181px;stroke-linecap:butt;stroke-linejoin:miter;stroke-opacity:0.992957"
             d="M 7.9198626,23.830572 49.644,63.526478 7.3,63.375569 7.390772,44.977118 Z"
             id="path25243"
             sodipodi:nodetypes="ccccc" />
          <path
             style="fill:#1f1c24;fill-opacity:1;stroke:#000000;stroke-width:0.265661px;stroke-linecap:butt;stroke-linejoin:miter;stroke-opacity:0.992957"
             d="M 30.410857,23.839997 78.405624,63.06292 H 105.85758 L 57.966426,23.4945 40.396871,23.373705 c -5.396785,-0.03711 -9.986014,0.466292 -9.986014,0.466292 z"
             id="path25245"
             sodipodi:nodetypes="ccccsc" />
          <path
             style="fill:#1f1c24;fill-opacity:1;stroke:#000000;stroke-width:0.265661px;stroke-linecap:butt;stroke-linejoin:miter;stroke-opacity:0.992957"
             d="m 86.544662,23.502919 47.994958,39.801885 h 27.45209 L 113.92863,23.573747 Z"
             id="path25247"
             sodipodi:nodetypes="ccccc" />
        </g>
      </g>
      <path
         id="path25253"
         style="display:inline;opacity:0.953717;fill:url(#linearGradient29910);stroke:url(#radialGradient29912);stroke-width:1.18136;stroke-opacity:0.91488;paint-order:fill markers stroke"
         transform="scale(1,-1)"
         d="m 8.6890965,-158.48148 c 1.6580815,-9.11672 131.1778035,-4.59157 134.8082435,0 3.63044,4.59157 0,95.091709 0,95.091709 H 8.6890965 c 0,0 -1.6580812,-85.974989 0,-95.091709 z"
         sodipodi:nodetypes="zzccz" />
      <g
         id="g25263"
         transform="translate(2.1166667,3.1750001)"
         style="display:inline;opacity:0.872571;fill:#ffffff">
        <path
           style="display:inline;fill:#ffffff;fill-opacity:0.909804;stroke:none;stroke-width:0.245835px;stroke-linecap:butt;stroke-linejoin:miter;stroke-opacity:1"
           d="m 67.169531,155.81481 c 31.2716,-0.19854 52.761899,-27.99187 42.396329,-52.73626 -6.85694,-14.201236 -23.685891,-23.599485 -23.685891,-23.599485 -1.552044,5.305522 -7.111328,5.854526 -8.933106,0.330726 -1.758009,-6.070554 1.41207,-7.798221 3.108978,-9.968498 0,0 -10.313502,4.247895 -15.290873,8.334385 -4.977371,4.086491 -10.675997,14.186007 -10.675997,14.186007 0,0 -6.174045,-6.163088 -3.44843,-14.351339 0,0 -12.348491,4.613675 -17.868044,19.567871 -8.229184,25.552763 -4.3118,54.954153 34.397024,58.236593 z"
           id="path25255"
           sodipodi:nodetypes="ccccczccccc" />
        <path
           style="fill:#d40000;stroke:none;stroke-width:0.286975px;stroke-linecap:butt;stroke-linejoin:miter;stroke-opacity:1"
           d="m 82.262248,104.4796 c -4.299982,-3.41401 -31.900112,11.43412 -31.898106,15.86378 7.686222,12.40636 26.543234,17.55778 30.811265,14.56246 4.550414,-3.09754 6.218966,-26.4911 1.086841,-30.42624 z"
           id="path25257"
           sodipodi:nodetypes="cccc" />
        <path
           id="path25259"
           style="display:inline;opacity:0.161804;fill:#54666c;fill-opacity:0.858824;stroke:none;stroke-width:0.92914px;stroke-linecap:butt;stroke-linejoin:miter;stroke-opacity:1"
           d="m 366.60352,379.4082 c 0,0 -23.63056,12.19225 -42.87943,31.22958 19.48551,-8.76192 41.75849,-17.1047 59.36966,-15.25887 -6.84338,-0.42034 -13.55865,-5.94935 -16.49023,-15.97071 z"
           transform="matrix(-0.26458333,0,0,0.26458333,182.87736,-20.905834)"
           sodipodi:nodetypes="cccc" />
        <path
           id="path25261"
           style="display:inline;opacity:0.776206;fill:#cccccc;fill-opacity:0.909804;stroke:none;stroke-width:0.245835px;stroke-linecap:butt;stroke-linejoin:miter;stroke-opacity:1"
           d="M 80.055869,69.841095 C 66.512695,75.712 61.777222,83.783554 60.219801,98.760075 c 0,0 -4.106631,-3.00634 -6.130823,-6.39839 0,0 5.698982,-10.099725 10.676353,-14.186215 4.97737,-4.086489 15.290538,-8.334375 15.290538,-8.334375 z"
           sodipodi:nodetypes="ccssc" />
      </g>
    </g>
    <g
       id="g25307"
       transform="matrix(-0.96439345,0.26447168,0.26447168,0.96439345,151.28585,17.435671)">
      <g
         id="g25293"
         transform="matrix(0.87099387,0,0,1,1.7848445,0.74212092)">
        <path
           style="opacity:0.523316;mix-blend-mode:normal;fill:#1f1c24;fill-opacity:1;stroke:#050000;stroke-width:1.2483;stroke-linecap:butt;stroke-linejoin:miter;stroke-miterlimit:4;stroke-dasharray:none;stroke-opacity:0.91488;filter:url(#filter28734)"
           d="M 49.642394,46.012424 161.99219,45.576108"
           id="path25271"
           sodipodi:nodetypes="cc" />
        <g
           id="g25281"
           transform="matrix(0.97716574,-0.1850675,0.14030591,0.56201026,-6.584133,19.958101)">
          <path
             id="path25273"
             style="opacity:0.953717;fill:#dedbe3;stroke-width:1.26925;paint-order:fill markers stroke"
             d="m 38.786904,23.615583 c 42.368314,-0.343359 115.642146,-0.347236 122.357886,-0.347236 2.8695,0 1.78599,40.140029 1.78599,40.140029 L 7.4001687,63.464036 c 0,0 0.116118,-8.635017 -0.217734,-16.891329 0,-18.675781 13.1491433,-22.957128 31.6044693,-22.957128 z"
             sodipodi:nodetypes="csccccc" />
          <path
             style="fill:#1f1c24;fill-opacity:1;stroke:#000000;stroke-width:0.264181px;stroke-linecap:butt;stroke-linejoin:miter;stroke-opacity:0.992957"
             d="M 10.087883,34.33703 49.644,63.526478 7.3,63.375569 7.390772,44.977118 C 7.4248387,38.07219 10.087883,34.33703 10.087883,34.33703 Z"
             id="path25275"
             sodipodi:nodetypes="cccsc" />
          <path
             style="fill:#1f1c24;fill-opacity:1;stroke:#000000;stroke-width:0.265661px;stroke-linecap:butt;stroke-linejoin:miter;stroke-opacity:0.992957"
             d="M 29.923793,24.081881 77.91856,63.304804 h 27.45196 L 57.479362,23.736384 39.909807,23.615589 c -5.396785,-0.0371 -9.986014,0.466292 -9.986014,0.466292 z"
             id="path25277"
             sodipodi:nodetypes="ccccsc" />
          <path
             style="fill:#1f1c24;fill-opacity:1;stroke:#000000;stroke-width:0.265661px;stroke-linecap:butt;stroke-linejoin:miter;stroke-opacity:0.992957"
             d="m 86.544662,23.502919 47.994958,39.801885 h 27.45209 L 113.92863,23.573747 Z"
             id="path25279"
             sodipodi:nodetypes="ccccc" />
        </g>
        <g
           id="g25291"
           transform="matrix(1.0000186,0,0,-0.41886041,-0.00252982,72.621151)">
          <path
             id="path25283"
             style="opacity:0.953717;fill:#dedbe3;stroke-width:1.26925;paint-order:fill markers stroke"
             d="M 38.786904,23.615583 C 81.155218,23.272224 162.74961,23.729178 162.74961,23.729178 L 162.93078,63.408376 7.4001687,63.464036 7.9198626,23.830572 38.786904,23.615579 Z"
             sodipodi:nodetypes="ccccccc" />
          <path
             style="fill:#1f1c24;fill-opacity:1;stroke:#000000;stroke-width:0.264181px;stroke-linecap:butt;stroke-linejoin:miter;stroke-opacity:0.992957"
             d="M 7.9198626,23.830572 49.644,63.526478 7.3,63.375569 7.390772,44.977118 Z"
             id="path25285"
             sodipodi:nodetypes="ccccc" />
          <path
             style="fill:#1f1c24;fill-opacity:1;stroke:#000000;stroke-width:0.265661px;stroke-linecap:butt;stroke-linejoin:miter;stroke-opacity:0.992957"
             d="M 30.410857,23.839997 78.405624,63.06292 H 105.85758 L 57.966426,23.4945 40.396871,23.373705 c -5.396785,-0.03711 -9.986014,0.466292 -9.986014,0.466292 z"
             id="path25287"
             sodipodi:nodetypes="ccccsc" />
          <path
             style="fill:#1f1c24;fill-opacity:1;stroke:#000000;stroke-width:0.265661px;stroke-linecap:butt;stroke-linejoin:miter;stroke-opacity:0.992957"
             d="m 86.544662,23.502919 47.994958,39.801885 h 27.45209 L 113.92863,23.573747 Z"
             id="path25289"
             sodipodi:nodetypes="ccccc" />
        </g>
      </g>
      <path
         id="path25295"
         style="display:inline;opacity:0.953717;fill:url(#linearGradient28431);stroke:url(#radialGradient27124);stroke-width:1.18136;stroke-opacity:0.91488;paint-order:fill markers stroke"
         transform="scale(1,-1)"
         d="m 8.6890965,-158.48148 c 1.6580815,-9.11672 131.1778035,-4.59157 134.8082435,0 3.63044,4.59157 0,95.091709 0,95.091709 H 8.6890965 c 0,0 -1.6580812,-85.974989 0,-95.091709 z"
         sodipodi:nodetypes="zzccz" />
      <g
         id="g25305"
         transform="translate(2.1166667,3.1750001)"
         style="display:inline;opacity:0.872571;fill:#ffffff">
        <path
           style="display:inline;fill:#ffffff;fill-opacity:0.909804;stroke:none;stroke-width:0.245835px;stroke-linecap:butt;stroke-linejoin:miter;stroke-opacity:1"
           d="m 67.169531,155.81481 c 31.2716,-0.19854 52.761899,-27.99187 42.396329,-52.73626 -6.85694,-14.201236 -23.685891,-23.599485 -23.685891,-23.599485 -1.552044,5.305522 -7.111328,5.854526 -8.933106,0.330726 -1.758009,-6.070554 1.41207,-7.798221 3.108978,-9.968498 0,0 -10.313502,4.247895 -15.290873,8.334385 -4.977371,4.086491 -10.675997,14.186007 -10.675997,14.186007 0,0 -6.174045,-6.163088 -3.44843,-14.351339 0,0 -12.348491,4.613675 -17.868044,19.567871 -8.229184,25.552763 -4.3118,54.954153 34.397024,58.236593 z"
           id="path25297"
           sodipodi:nodetypes="ccccczccccc" />
        <path
           style="fill:#d40000;stroke:none;stroke-width:0.286975px;stroke-linecap:butt;stroke-linejoin:miter;stroke-opacity:1"
           d="m 82.262248,104.4796 c -4.299982,-3.41401 -31.900112,11.43412 -31.898106,15.86378 7.686222,12.40636 26.543234,17.55778 30.811265,14.56246 4.550414,-3.09754 6.218966,-26.4911 1.086841,-30.42624 z"
           id="path25299"
           sodipodi:nodetypes="cccc" />
        <path
           id="path25301"
           style="display:inline;opacity:0.161804;fill:#54666c;fill-opacity:0.858824;stroke:none;stroke-width:0.92914px;stroke-linecap:butt;stroke-linejoin:miter;stroke-opacity:1"
           d="m 366.60352,379.4082 c 0,0 -23.63056,12.19225 -42.87943,31.22958 19.48551,-8.76192 41.75849,-17.1047 59.36966,-15.25887 -6.84338,-0.42034 -13.55865,-5.94935 -16.49023,-15.97071 z"
           transform="matrix(-0.26458333,0,0,0.26458333,182.87736,-20.905834)"
           sodipodi:nodetypes="cccc" />
        <path
           id="path25303"
           style="display:inline;opacity:0.776206;fill:#cccccc;fill-opacity:0.909804;stroke:none;stroke-width:0.245835px;stroke-linecap:butt;stroke-linejoin:miter;stroke-opacity:1"
           d="M 80.055869,69.841095 C 66.512695,75.712 61.777222,83.783554 60.219801,98.760075 c 0,0 -4.106631,-3.00634 -6.130823,-6.39839 0,0 5.698982,-10.099725 10.676353,-14.186215 4.97737,-4.086489 15.290538,-8.334375 15.290538,-8.334375 z"
           sodipodi:nodetypes="ccssc" />
        <path
           id="path6182"
           style="fill:#aa0000;stroke:none;stroke-width:1.08463px;stroke-linecap:butt;stroke-linejoin:miter;stroke-opacity:1"
           d="m 591.06641,579.41602 c 25.99691,-12.21657 60.16458,-41.65648 71.04492,-78.51954 -1.65697,-6.05287 -18.91138,-13.55869 -40.48418,-19.69986 22.55574,24.81687 14.54826,61.15141 -30.56074,98.2194 z"
           transform="matrix(-0.25516243,0.0699748,0.0699748,0.25516243,184.25977,-53.79767)"
           sodipodi:nodetypes="cccc" />
      </g>
      <path
         id="path3700"
         style="display:inline;opacity:0.394176;fill:#536753;fill-opacity:1;stroke:url(#radialGradient3808);stroke-width:4.46498;stroke-opacity:0.91488;paint-order:fill markers stroke"
         d="m 743.29883,635.24219 c 66.31361,-20.42265 114.35924,-39.53646 113.3789,-50.67969 -1.59028,-18.07633 -26.99267,-110.20611 -51.16015,-195.05273 13.32506,146.09878 -15.1232,163.33562 -62.21875,245.73242 z"
         transform="matrix(-0.25516243,0.0699748,0.0699748,0.25516243,186.37643,-50.62267)"
         sodipodi:nodetypes="cscc" />
    </g>
    <g
       id="g30232">
      <g
         id="g30040"
         transform="matrix(0.71405697,-0.07490934,0.07490934,0.71405697,20.265395,89.524237)"
         style="opacity:0.400431;mix-blend-mode:normal;fill:#916f6f;stroke:none;filter:url(#filter1602)">
        <path
           id="path30026"
           style="fill:#916f6f;fill-opacity:1;stroke:none;stroke-width:0.692344px;stroke-linecap:butt;stroke-linejoin:miter;stroke-opacity:1"
           d="m 556.25195,142.38477 -33.89843,127.41796 h 13.69531 l 54.55273,-112.84765 z"
           transform="matrix(0.31937899,0.20985656,-0.20985656,0.31937899,60.937121,-201.14831)" />
        <path
           style="fill:#916f6f;fill-opacity:1;stroke:none;stroke-width:0.163597px;stroke-linecap:butt;stroke-linejoin:miter;stroke-opacity:1;filter:url(#filter28764)"
           d="m 205.59964,-31.980088 -23.45032,21.805179 29.35666,-15.301279 z"
           id="path30028"
           transform="rotate(2.7734457,192.75369,-14.973522)"
           sodipodi:nodetypes="cccc" />
        <ellipse
           style="opacity:1;fill:#916f6f;fill-opacity:0.999334;stroke:none;stroke-width:0.313143;stroke-miterlimit:4;stroke-dasharray:none;stroke-opacity:1;paint-order:fill markers stroke"
           id="ellipse30030"
           cx="196.774"
           cy="86.465553"
           rx="16.235857"
           ry="27.164574"
           transform="matrix(0.8407564,-0.54141359,0.58596283,0.81033793,0,0)" />
        <path
           style="opacity:1;fill:#916f6f;stroke:none;stroke-width:0.264583px;stroke-linecap:butt;stroke-linejoin:miter;stroke-opacity:1"
           d="m 201.60407,-51.024384 32.07271,-14.121956 16.63446,17.237014 -21.68084,29.758955 c 0,0 -7.95223,-0.945923 -18.72818,-12.130949 -10.77594,-11.185027 -8.29815,-20.743064 -8.29815,-20.743064 z"
           id="path30032"
           sodipodi:nodetypes="cccczc" />
        <ellipse
           style="opacity:1;fill:#916f6f;fill-opacity:0.999334;stroke:none;stroke-width:0.219;stroke-miterlimit:4;stroke-dasharray:none;stroke-opacity:1;paint-order:fill markers stroke"
           id="ellipse30034"
           cx="220.24379"
           cy="115.98184"
           rx="11.444623"
           ry="18.848553"
           transform="rotate(-41.105736)" />
        <ellipse
           style="opacity:1;mix-blend-mode:normal;fill:#916f6f;fill-opacity:0.962998;stroke:none;stroke-width:0.165124;stroke-miterlimit:4;stroke-dasharray:none;stroke-opacity:1;paint-order:fill markers stroke;filter:url(#filter28238)"
           id="ellipse30036"
           cx="220.85579"
           cy="116.07237"
           rx="8.6291189"
           ry="14.211599"
           transform="matrix(0.52461266,-0.45774129,0.45774129,0.52461266,73.966608,-17.154988)" />
        <ellipse
           style="opacity:1;mix-blend-mode:normal;fill:#916f6f;fill-opacity:0.962998;stroke:none;stroke-width:0.165124;stroke-miterlimit:4;stroke-dasharray:none;stroke-opacity:1;paint-order:fill markers stroke;filter:url(#filter28983)"
           id="ellipse30038"
           cx="220.85579"
           cy="116.07237"
           rx="8.6291189"
           ry="14.211599"
           transform="matrix(-0.35881649,0.88412056,-0.83813442,0.02931061,400.50814,-233.44326)" />
      </g>
      <g
         id="g28773"
         transform="matrix(0.67709477,-0.14451373,0.14451373,0.67709477,25.635447,102.16889)">
        <path
           id="path28572"
           style="fill:#cccccc;fill-opacity:1;stroke:#000000;stroke-width:0.692344px;stroke-linecap:butt;stroke-linejoin:miter;stroke-opacity:1"
           d="m 556.25195,142.38477 -33.89843,127.41796 h 13.69531 l 54.55273,-112.84765 z"
           transform="matrix(0.31937899,0.20985656,-0.20985656,0.31937899,60.937121,-201.14831)" />
        <path
           style="fill:#3fc3ba;fill-opacity:0.255116;stroke:none;stroke-width:0.163597px;stroke-linecap:butt;stroke-linejoin:miter;stroke-opacity:1;filter:url(#filter28764)"
           d="m 205.59964,-31.980088 -23.45032,21.805179 29.35666,-15.301279 z"
           id="path28726"
           transform="rotate(2.7734457,192.75369,-14.973522)"
           sodipodi:nodetypes="cccc" />
        <ellipse
           style="opacity:1;fill:#4d4d4d;fill-opacity:1;stroke:#000000;stroke-width:0.313143;stroke-miterlimit:4;stroke-dasharray:none;stroke-opacity:1;paint-order:fill markers stroke"
           id="ellipse29796"
           cx="196.774"
           cy="86.465553"
           rx="16.236126"
           ry="27.164574"
           transform="matrix(0.8407564,-0.54141359,0.58596283,0.81033793,0,0)" />
        <path
           style="opacity:1;fill:#333333;stroke:#000000;stroke-width:0.264583px;stroke-linecap:butt;stroke-linejoin:miter;stroke-opacity:1"
           d="m 201.60407,-51.024384 32.07271,-14.121956 16.63446,17.237014 -21.68084,29.758955 c 0,0 -7.95223,-0.945923 -18.72818,-12.130949 -10.77594,-11.185027 -8.29815,-20.743064 -8.29815,-20.743064 z"
           id="path26601"
           sodipodi:nodetypes="cccczc" />
        <ellipse
           style="opacity:1;fill:#4d4d4d;fill-opacity:0.999334;stroke:#000000;stroke-width:0.219;stroke-miterlimit:4;stroke-dasharray:none;stroke-opacity:1;paint-order:fill markers stroke"
           id="path25738"
           cx="220.24379"
           cy="115.98184"
           rx="11.444623"
           ry="18.848553"
           transform="rotate(-41.105736)" />
        <ellipse
           style="opacity:1;mix-blend-mode:normal;fill:#333333;fill-opacity:0.397271;stroke:none;stroke-width:0.165124;stroke-miterlimit:4;stroke-dasharray:none;stroke-opacity:1;paint-order:fill markers stroke;filter:url(#filter28238)"
           id="ellipse28164"
           cx="220.85579"
           cy="116.07237"
           rx="8.6291189"
           ry="14.211599"
           transform="matrix(0.52461266,-0.45774129,0.45774129,0.52461266,73.966608,-17.154988)" />
        <ellipse
           style="opacity:0.504421;mix-blend-mode:normal;fill:#666666;fill-opacity:0.932829;stroke:none;stroke-width:0.165124;stroke-miterlimit:4;stroke-dasharray:none;stroke-opacity:1;paint-order:fill markers stroke;filter:url(#filter28983)"
           id="ellipse28797"
           cx="220.85579"
           cy="116.07237"
           rx="8.6291189"
           ry="14.211599"
           transform="matrix(-0.35881649,0.88412056,-0.83813442,0.02931061,400.98676,-235.6857)" />
        <path
           id="ellipse2015"
           style="opacity:1;fill:#333333;fill-opacity:1;stroke:none;stroke-width:0.818816;stroke-miterlimit:4;stroke-dasharray:none;stroke-opacity:1;paint-order:fill markers stroke"
           d="m 754.56445,51.136719 c -7.8969,0.82354 -14.46285,3.676789 -19.17383,8.332031 -11.91155,11.84788 -10.40872,33.682883 3.83399,55.70508 -5.77827,-36.730444 2.18288,-53.587023 15.33984,-64.037111 z"
           transform="matrix(0.37373767,0.0797676,-0.0797676,0.37373767,-69.912608,-139.36813)"
           sodipodi:nodetypes="cccc" />
        <path
           id="path2551"
           style="opacity:0.528125;fill:#1a1a1a;stroke:none;stroke-width:0.692344px;stroke-linecap:butt;stroke-linejoin:miter;stroke-opacity:1"
           d="m 783.79883,48.40625 -40.70899,29.373047 c 0,0 -0.87522,20.678484 23.08789,41.322263 -11.30602,-39.353235 4.83672,-50.391136 17.6211,-70.69531 z"
           transform="matrix(0.37373767,0.0797676,-0.0797676,0.37373767,-69.912608,-139.36813)"
           sodipodi:nodetypes="cccc" />
        <path
           id="ellipse3256"
           style="opacity:0.409154;fill:#1a1a1a;fill-opacity:0.999334;stroke:#000000;stroke-width:0.573065;stroke-miterlimit:4;stroke-dasharray:none;stroke-opacity:1;paint-order:fill markers stroke"
           d="m 806.65234,6.9296875 c -0.97259,0.8364363 -1.84608,1.7588536 -2.61523,2.7617187 -9.91856,13.2359428 -0.28734,37.2081738 21.51172,53.5429688 2.90803,2.169617 5.95183,4.137253 9.07617,5.867187 C 820.2969,50.654996 808.73828,34.136804 806.65234,6.9296875 Z"
           transform="matrix(0.37373767,0.0797676,-0.0797676,0.37373767,-69.912608,-139.36813)"
           sodipodi:nodetypes="ccccc" />
      </g>
    </g>
  </g>
</svg>
